<svg width="142" height="142" viewBox="0 0 142 142" fill="none" xmlns="http://www.w3.org/2000/svg">
<path d="M71 142C110.212 142 142 110.212 142 71C142 31.7878 110.212 0 71 0C31.7878 0 0 31.7878 0 71C0 110.212 31.7878 142 71 142Z" fill="white"/>
<path fill-rule="evenodd" clip-rule="evenodd" d="M120.832 121.569C107.433 134.776 89.3388 142.124 70.5255 141.999C51.7121 141.873 33.7179 134.285 20.4961 120.9C22.187 116.224 25.4712 112.293 29.7721 109.798C32.6708 107.654 35.8139 105.863 39.1354 104.462C34.0849 87.1074 47.8139 78.5759 53.0666 76.1196C53.0666 84.1319 60.5687 78.8149 69.8792 78.916C77.5444 79.001 92.7026 86.7168 92.7026 76.5378C101.135 79.0332 110.326 95.1036 104.001 104.977C106.594 106.245 109.045 107.787 111.31 109.577C115.738 112.395 119.092 116.617 120.832 121.569Z" fill="#677079"/>
<path fill-rule="evenodd" clip-rule="evenodd" d="M55.2201 88.8765L89.5024 89.0833V96.9806L89.4864 97.1024C89.4626 97.4601 89.4088 97.8152 89.3255 98.1639L89.2106 98.9475L89.1417 99.1106C86.9221 110.769 77.2095 115.275 71.2124 118.414C64.8936 114.972 55.96 108.77 55.25 97.7986L55.2201 97.663V97.2035C55.2152 97.045 55.2122 96.8864 55.2109 96.7278C55.2109 96.8106 55.2178 96.8887 55.2201 96.9714V88.8765Z" fill="#F9DCA4"/>
<path opacity="0.11" fill-rule="evenodd" clip-rule="evenodd" d="M89.5032 88.7319V97.9344C89.4965 98.7874 89.4235 99.6386 89.2849 100.48C89.1109 101.522 88.818 102.541 88.4118 103.516C76.5003 112.511 57.521 105.133 54.4902 89.7682L89.5032 88.7319Z" fill="black"/>
<path fill-rule="evenodd" clip-rule="evenodd" d="M41.5983 57.9834C30.2474 60.9015 39.8979 74.7339 47.037 74.6742C44.158 69.5163 42.3107 63.8473 41.5983 57.9834Z" fill="#F9DCA4"/>
<path fill-rule="evenodd" clip-rule="evenodd" d="M100.726 57.9834C112.077 60.9015 102.427 74.7339 95.2852 74.6719C98.165 69.515 100.013 63.8467 100.726 57.9834Z" fill="#F9DCA4"/>
<path fill-rule="evenodd" clip-rule="evenodd" d="M70.6173 26.1045C117.774 26.1045 99.3965 100.657 70.6173 100.657C43.435 100.657 23.4607 26.1045 70.6173 26.1045Z" fill="#FFE8BE"/>
<path fill-rule="evenodd" clip-rule="evenodd" d="M48.3604 50.7918C48.7627 51.2327 49.061 51.7583 49.2334 52.3297C49.4058 52.9012 49.448 53.504 49.3567 54.0939C49.2655 54.6838 49.0431 55.2457 48.7061 55.7383C48.369 56.231 47.9258 56.6418 47.4091 56.9405C44.0774 59.6817 43.9556 69.2404 43.9556 69.2404C42.6688 67.9628 42.6987 61.1201 39.9093 57.1657C37.1198 53.2113 35.2402 25.5419 50.8396 15.4801C49.881 16.6076 49.1902 17.9375 48.8189 19.3701C48.4476 20.8027 48.4055 22.3008 48.6958 23.752C48.6958 23.752 59.532 8.21233 77.5095 8.66039C76.0843 9.43751 74.8388 10.5062 73.8542 11.7969C72.8696 13.0875 72.1679 14.5711 71.795 16.151C71.795 16.151 87.5116 9.6668 100.609 17.3803C97.2036 18.3215 93.983 19.8342 91.0846 21.854C97.4447 22.0286 103.591 23.2097 108.226 27.3318C107.228 27.6521 106.305 28.1689 105.511 28.8519C104.717 29.5349 104.067 30.3701 103.601 31.3083C103.135 32.2465 102.862 33.2686 102.797 34.3141C102.733 35.3597 102.878 36.4076 103.226 37.3959C105.193 45.4449 105.377 52.9333 103.472 56.9589C101.567 60.9846 100.668 58.3858 99.4759 66.8277C99.4175 67.398 99.2272 67.9469 98.9202 68.431C98.6131 68.9152 98.1976 69.3212 97.7067 69.6172C97.6607 70.2284 98.5844 60.9869 96.2016 58.526C93.8212 56.0674 95.317 53.0459 96.2683 51.2582C102.909 38.7884 83.0218 33.1382 72.1512 33.152C62.7235 33.1635 39.9828 37.4488 48.3604 50.7918Z" fill="#8A5C42"/>
<path fill-rule="evenodd" clip-rule="evenodd" d="M45.4727 112.961C45.5416 113.049 69.4105 143.942 97.4706 112.502C94.0814 121.812 79.4632 129.207 71.1017 129.184C55.1324 129.138 46.2952 116.316 45.4727 112.961Z" fill="#434955"/>
<path fill-rule="evenodd" clip-rule="evenodd" d="M83.4901 140.904C82.548 141.07 81.6014 141.215 80.6478 141.346V120.811C80.6828 120.467 80.8509 120.15 81.1163 119.929C81.3816 119.707 81.7232 119.598 82.0678 119.625C82.4128 119.597 82.755 119.706 83.0208 119.928C83.2867 120.149 83.4552 120.466 83.4901 120.811V140.904ZM60.9263 141.286C59.9735 141.149 59.0261 140.996 58.084 140.826V120.811C58.1189 120.467 58.2871 120.15 58.5524 119.929C58.8178 119.707 59.1593 119.598 59.504 119.625C59.8494 119.597 60.1921 119.705 60.4585 119.927C60.7248 120.149 60.8936 120.466 60.9286 120.811L60.9263 141.286Z" fill="#E6E6E6"/>
</svg>
